<svg xmlns="http://www.w3.org/2000/svg" width="225" height="225" viewBox="0 0 225 225">
  <defs>
    <style>
      .cls-1 {
        fill: #e8e5ea;
        fill-rule: evenodd;
      }
    </style>
  </defs>
  <path class="cls-1" d="M196.251,112.271h0c0,0.075,0,.15,0,0.225a83.63,83.63,0,0,1-31.532,65.428A96.247,96.247,0,0,0,117.935.966q-2.7-.13-5.435-0.134A111.636,111.636,0,0,0,20.161,49.774,99.121,99.121,0,0,1,196.251,112.271ZM173.882,19.265A99.122,99.122,0,0,1,114.7,196.216q-1.1.029-2.2,0.03a83.61,83.61,0,0,1-64.418-30.289,96.25,96.25,0,0,0,176.055-50.986c0.018-.822.031-1.645,0.031-2.472A111.655,111.655,0,0,0,173.882,19.265ZM13.329,127.911a99.276,99.276,0,0,1,96.926-99.133q1.119-.03,2.245-0.031a83.654,83.654,0,0,1,66.2,32.516A96.251,96.251,0,0,0,1.1,104.794c-0.175,2.547-.271,5.115-0.271,7.7a111.651,111.651,0,0,0,50.225,93.2A99.033,99.033,0,0,1,13.329,127.911Zm114.576,83.436a99.274,99.274,0,0,1-99.162-99.163h0.011A83.636,83.636,0,0,1,60.366,47a96.249,96.249,0,0,0,46.825,177.034q2.64,0.124,5.309.129a111.682,111.682,0,0,0,94.507-52.253A99.068,99.068,0,0,1,127.905,211.347Z"/>
</svg>
