<svg xmlns="http://www.w3.org/2000/svg" xmlns:xlink="http://www.w3.org/1999/xlink" width="130" height="130" viewBox="0 0 130 130">
  <defs>
    <style>
      .cls-1 {
        fill-rule: evenodd;
        fill: url(#linear-gradient);
      }
    </style>
    <linearGradient id="linear-gradient" x1="2" y1="128" x2="128" y2="2" gradientUnits="userSpaceOnUse">
      <stop offset="0" stop-color="#ff980e"/>
      <stop offset="1" stop-color="#ff3849"/>
    </linearGradient>
  </defs>
  <path id="_" data-name="" class="cls-1" d="M39.888,47.28Q36.116,48.419,37.1,52.1l2.037,7.6q1.019,3.8,4.82,2.784t2.783-4.821l-2.037-7.6Q43.657,46.142,39.888,47.28ZM77.9,37.091q-3.771,1.139-2.783,4.821l2.037,7.6q1.019,3.8,4.82,2.783T84.76,47.48l-2.037-7.6Q81.672,35.954,77.9,37.091ZM73.155,95.419a36.607,36.607,0,0,0,11.6-5.4A23.174,23.174,0,0,0,92.713,80.5q1.523-3.337-1.935-5.085t-5.04,1.86A17.526,17.526,0,0,1,80.1,83.56a27.69,27.69,0,0,1-18.889,5.062A17.507,17.507,0,0,1,53.188,86q-2.69-1.954-5.053,1.1t0.624,5.182a23.166,23.166,0,0,0,11.647,4.265,36.594,36.594,0,0,0,12.75-1.125h0ZM73.638,2.638a63.78,63.78,0,0,1,41.046,23.7A60.651,60.651,0,0,1,125.83,48.7a60.645,60.645,0,0,1,1.523,24.936,63.8,63.8,0,0,1-23.7,41.056A60.614,60.614,0,0,1,81.3,125.838a60.6,60.6,0,0,1-24.93,1.524,63.781,63.781,0,0,1-41.046-23.7A60.641,60.641,0,0,1,4.183,81.3,60.66,60.66,0,0,1,2.66,56.366a63.8,63.8,0,0,1,23.7-41.056A60.618,60.618,0,0,1,48.709,4.162,60.616,60.616,0,0,1,73.638,2.638ZM31.13,21.481A55.23,55.23,0,0,0,10.389,57.415a53.813,53.813,0,0,0,1.4,21.849A53.8,53.8,0,0,0,21.5,98.885a55.207,55.207,0,0,0,35.925,20.746,53.77,53.77,0,0,0,21.844-1.4,53.783,53.783,0,0,0,19.616-9.715,55.235,55.235,0,0,0,20.741-35.934,53.831,53.831,0,0,0-1.4-21.849,53.832,53.832,0,0,0-9.712-19.621A55.212,55.212,0,0,0,72.59,10.369a53.808,53.808,0,0,0-21.844,1.4A53.809,53.809,0,0,0,31.13,21.481Z"/>
</svg>
